<?xml version="1.0" encoding="UTF-8"?>
<svg xmlns="http://www.w3.org/2000/svg" id="Layer_1" data-name="Layer 1" width="128" height="128" viewBox="29 12.235 125.33 125.33">
  <defs>
    <style>.cls-1{fill:#25618e;}</style>
  </defs>
  <polygon class="cls-1" points="78.6 106.06 73.94 108.56 66.06 109.14 74.15 110.27 78.6 106.06"></polygon>
  <polygon class="cls-1" points="101.19 64.47 102.42 72.25 100.13 81.21 105.17 78.47 104.01 68.65 101.19 64.47"></polygon>
  <polygon class="cls-1" points="81.74 88.56 86.9 84.11 86.53 80.54 81.74 88.56"></polygon>
  <polygon class="cls-1" points="108.8 91.67 109.04 85.52 107.85 87.93 108.8 91.67"></polygon>
  <polygon class="cls-1" points="57.27 121.03 61.68 116.96 66.06 109.14 59.16 107.7 70.02 98.25 72.13 94.02 75.69 89.23 79.28 82.5 82.72 78.63 88.65 76.25 96.62 60.33 101.65 63.44 104.94 67.37 106.82 77.37 110.6 73 112.87 74.03 113.35 76.74 111.83 85.58 109.07 92.81 111.34 104.59 109.47 104.18 111.34 110.37 109.94 110.24 112.31 117.89 109.89 116.98 112.88 123.98 113.48 125.98 153.33 125.98 91.65 23.82 30 125.98 54.15 125.98 58.98 120.88 57.27 121.03"></polygon>
</svg>
